<mxfile host="Electron" agent="Mozilla/5.0 (Macintosh; Intel Mac OS X 10_15_7) AppleWebKit/537.36 (KHTML, like Gecko) draw.io/27.0.9 Chrome/134.0.6998.205 Electron/35.4.0 Safari/537.36" version="27.0.9">
  <diagram name="Page-1" id="c0MG-RBC0vRgcLwglr-d">
    <mxGraphModel dx="396" dy="239" grid="1" gridSize="10" guides="1" tooltips="1" connect="1" arrows="1" fold="1" page="1" pageScale="1" pageWidth="850" pageHeight="1100" math="1" shadow="0">
      <root>
        <mxCell id="0" />
        <mxCell id="1" style="" parent="0" />
        <mxCell id="nFalwkdKr-MPZPnfVBTE-1" value="" style="endArrow=classic;html=1;rounded=0;" edge="1" parent="1">
          <mxGeometry width="50" height="50" relative="1" as="geometry">
            <mxPoint x="200" y="360" as="sourcePoint" />
            <mxPoint x="280" y="360" as="targetPoint" />
          </mxGeometry>
        </mxCell>
        <mxCell id="nFalwkdKr-MPZPnfVBTE-3" value="" style="endArrow=classic;html=1;rounded=0;" edge="1" parent="1">
          <mxGeometry width="50" height="50" relative="1" as="geometry">
            <mxPoint x="210" y="370" as="sourcePoint" />
            <mxPoint x="210" y="290" as="targetPoint" />
          </mxGeometry>
        </mxCell>
        <mxCell id="nFalwkdKr-MPZPnfVBTE-10" value="" style="endArrow=classic;html=1;rounded=0;" edge="1" parent="1">
          <mxGeometry width="50" height="50" relative="1" as="geometry">
            <mxPoint x="305" y="360" as="sourcePoint" />
            <mxPoint x="385" y="360" as="targetPoint" />
          </mxGeometry>
        </mxCell>
        <mxCell id="nFalwkdKr-MPZPnfVBTE-11" value="" style="endArrow=classic;html=1;rounded=0;" edge="1" parent="1">
          <mxGeometry width="50" height="50" relative="1" as="geometry">
            <mxPoint x="315" y="370" as="sourcePoint" />
            <mxPoint x="315" y="290" as="targetPoint" />
          </mxGeometry>
        </mxCell>
        <mxCell id="nFalwkdKr-MPZPnfVBTE-12" value="" style="curved=1;endArrow=classic;html=1;rounded=0;strokeColor=#0000FF;" edge="1" parent="1">
          <mxGeometry width="50" height="50" relative="1" as="geometry">
            <mxPoint x="210" y="320" as="sourcePoint" />
            <mxPoint x="280" y="350" as="targetPoint" />
            <Array as="points">
              <mxPoint x="240" y="320" />
              <mxPoint x="250" y="340" />
              <mxPoint x="260" y="350" />
            </Array>
          </mxGeometry>
        </mxCell>
        <mxCell id="nFalwkdKr-MPZPnfVBTE-13" value="" style="curved=1;endArrow=classic;html=1;rounded=0;strokeColor=#FF0000;" edge="1" parent="1">
          <mxGeometry width="50" height="50" relative="1" as="geometry">
            <mxPoint x="315" y="352" as="sourcePoint" />
            <mxPoint x="382" y="290" as="targetPoint" />
            <Array as="points">
              <mxPoint x="342" y="320" />
              <mxPoint x="362" y="350" />
              <mxPoint x="372" y="340" />
            </Array>
          </mxGeometry>
        </mxCell>
        <mxCell id="UrFGi6wFs18K0bhvfEZ_-5" value="pics" style="" parent="0" />
        <mxCell id="UrFGi6wFs18K0bhvfEZ_-6" value="sigs" style="" parent="0" />
        <mxCell id="UrFGi6wFs18K0bhvfEZ_-8" value="name" style="" parent="0" />
        <mxCell id="nFalwkdKr-MPZPnfVBTE-6" value="Control Error" style="text;html=1;align=center;verticalAlign=middle;resizable=0;points=[];autosize=1;strokeColor=none;fillColor=none;fontStyle=0;fontFamily=Times New Roman;horizontal=0;" vertex="1" parent="UrFGi6wFs18K0bhvfEZ_-8">
          <mxGeometry x="175" y="285" width="40" height="80" as="geometry" />
        </mxCell>
        <mxCell id="nFalwkdKr-MPZPnfVBTE-7" value="NN Weight" style="text;html=1;align=center;verticalAlign=middle;resizable=0;points=[];autosize=1;strokeColor=none;fillColor=none;fontStyle=0;fontFamily=Times New Roman;horizontal=0;" vertex="1" parent="UrFGi6wFs18K0bhvfEZ_-8">
          <mxGeometry x="282" y="290" width="40" height="70" as="geometry" />
        </mxCell>
        <mxCell id="UrFGi6wFs18K0bhvfEZ_-7" value="math" style="" parent="0" />
        <mxCell id="nFalwkdKr-MPZPnfVBTE-14" value="Time" style="text;html=1;align=center;verticalAlign=middle;resizable=0;points=[];autosize=1;strokeColor=none;fillColor=none;fontFamily=Times New Roman;" vertex="1" parent="UrFGi6wFs18K0bhvfEZ_-7">
          <mxGeometry x="217" y="355" width="50" height="30" as="geometry" />
        </mxCell>
        <mxCell id="nFalwkdKr-MPZPnfVBTE-15" value="Time" style="text;html=1;align=center;verticalAlign=middle;resizable=0;points=[];autosize=1;strokeColor=none;fillColor=none;fontFamily=Times New Roman;" vertex="1" parent="UrFGi6wFs18K0bhvfEZ_-7">
          <mxGeometry x="322" y="354" width="50" height="30" as="geometry" />
        </mxCell>
      </root>
    </mxGraphModel>
  </diagram>
</mxfile>
